<?xml version="1.0" ?><svg xmlns="http://www.w3.org/2000/svg" width="128" height="128" viewBox="0 0 128 128"><path d="M121.2,18.645a14.934,14.934,0,0,0,0-2.578V7.3a.5.5,0,0,0-.5-.5H7.3a.5.5,0,0,0-.5.5V26.319a.5.5,0,0,0-.052.22V120.7a.5.5,0,0,0,.5.5h113.4a.5.5,0,0,0,.5-.5V48.523a.488.488,0,0,0,.046-.205Zm-1.049,93.728H105.13v-1.508a7.509,7.509,0,1,1,15.018,0Zm-15.018,4.375h15.018V120.2H105.13Zm15.018-1H105.13v-2.375h15.018Zm-7.509-13.393a8.519,8.519,0,0,0-8.509,8.51V120.2h-1.109v-9.334a8.509,8.509,0,1,0-17.018,0V120.2H84.766L72.7,80.656a.5.5,0,0,0-.478-.354H55.681a.5.5,0,0,0-.478.354L43.137,120.2H41.9v-9.334a8.509,8.509,0,1,0-17.018,0V120.2H23.772v-9.334a8.506,8.506,0,0,0-16.021-3.988V74.668h27.5v2.041h-1.67a.5.5,0,0,0-.5.5v3.437H31.567a.5.5,0,0,0-.5.5v3.938a.5.5,0,0,0,.5.5H44.1a.5.5,0,0,0,.5-.5V84.7h7.908a.5.5,0,0,0,.5-.478,80.3,80.3,0,0,0-.111-9.553H75a80.3,80.3,0,0,0-.111,9.553.5.5,0,0,0,.5.478H83.3v.385a.5.5,0,0,0,.5.5H96.335a.5.5,0,0,0,.5-.5V81.146a.5.5,0,0,0-.5-.5H94.826V77.209a.5.5,0,0,0-.5-.5h-1.67V74.668h27.495v32.209A8.515,8.515,0,0,0,112.639,102.355ZM87,116.748h15.018V120.2H87Zm0-1v-2.375h15.018v2.375Zm15.018-3.375H87v-1.508a7.509,7.509,0,1,1,15.018,0ZM44.183,120.2,56.051,81.3h15.8L83.719,120.2Zm-18.3-3.447H40.9V120.2H25.881Zm0-1v-2.375H40.9v2.375ZM40.9,112.373H25.881v-1.508a7.509,7.509,0,1,1,15.018,0ZM63.475,24.279c.008.026.033.04.046.064a.456.456,0,0,0,.074.1.477.477,0,0,0,.356.181h0a.5.5,0,0,0,.477-.348,3.586,3.586,0,0,1,3.283-2.593,2.447,2.447,0,0,1,2.464,1.682c.777,2.465-.355,3.946-2.3,5.41-.578.433-1.2.848-1.836,1.269-.488.324-.979.651-1.456.989h0l0,0h0c-.217.149-.426.3-.631.454q-.36-.271-.731-.527c-.453-.318-.918-.627-1.379-.932-.68-.452-1.323-.879-1.915-1.326-1.935-1.478-2.665-2.844-2.389-4.548a.462.462,0,0,0,.015-.074,5.788,5.788,0,0,1,.17-.7,2.5,2.5,0,0,1,2.485-1.7A3.576,3.576,0,0,1,63.475,24.279ZM110.511,7.8c.284,0,.574.01.874.026,3.086.162,5.408,1.194,6.9,3.065a9.814,9.814,0,0,1,1.911,5.352v2.321c-.008.1-.017.191-.025.27H64.882c1.312-.985,6.195-2.934,24.226-2.329a.519.519,0,0,0,.506-.395c.025-.111.652-2.735,4.731-2.927,4.047-.192,4.606,2.431,4.629,2.539a.482.482,0,0,0,.516.408.5.5,0,0,0,.473-.458c.028-.331.777-7.847,10.329-7.872Zm9.64,41.086H92.656v-5.62h27.495ZM7.751,55.2H29.058a.5.5,0,0,0,0-1H7.751V48.532a.5.5,0,0,0,.052-.214V43.269H35.246V64.8H29.861a.5.5,0,0,0,0,1h5.385v7.87H7.751ZM42.676,53.53l.015-.006A21.156,21.156,0,0,0,46.557,51.4,3.5,3.5,0,0,1,45.2,54.427,7.332,7.332,0,0,1,40.424,56.5V54.341C41.21,54.1,41.964,53.831,42.676,53.53Zm15.937-24.6q.165.144.331.281l-2.255,3.275a.5.5,0,0,0-.027.523.486.486,0,0,0,.455.26l2.121-.068.69,2.01a.5.5,0,0,0,.405.333.382.382,0,0,0,.068.005.5.5,0,0,0,.411-.216l2.238-3.246c.2.144.4.285.592.435a.5.5,0,0,0,.309.107.5.5,0,0,0,.313-.109c.159-.128.326-.242.489-.361l2.337,3.384a.5.5,0,0,0,.411.216.4.4,0,0,0,.068-.005.5.5,0,0,0,.405-.332l.69-2.011,2.121.068a.461.461,0,0,0,.454-.26.5.5,0,0,0-.026-.523L68.86,29.283c.143-.114.284-.233.422-.354h2.09A34.508,34.508,0,0,0,74,42.269H53.9a34.531,34.531,0,0,0,2.632-13.34Zm1.131.882c.5.36,1.026.715,1.543,1.059.315.209.631.425.946.64l-1.681,2.438-.488-1.422a.479.479,0,0,0-.489-.337l-1.5.048Zm8.316.074,1.767,2.562-1.5-.048a.505.505,0,0,0-.488.337l-.489,1.423-1.785-2.585c.341-.235.688-.465,1.032-.694C67.1,30.549,67.59,30.221,68.06,29.885ZM53.433,43.269H74.469a21.967,21.967,0,0,0,3.922,5.62h-8.35a.5.5,0,0,0,0,1h9.394q.493.441,1.028.858c-.325,1.084-.243,2.6,1.416,4.256-1.454,1.436-3.65,4.353-5.211,9.8H51.235c-1.561-5.441-3.757-8.359-5.212-9.8,1.66-1.658,1.741-3.171,1.415-4.255A21.252,21.252,0,0,0,53.433,43.269ZM85.212,53.525l.013.005c.712.3,1.467.568,2.252.811V56.5a7.364,7.364,0,0,1-4.772-2.07,3.494,3.494,0,0,1-1.36-3.031A21.229,21.229,0,0,0,85.212,53.525Zm-45.788.4v3.065l0,.017c0,.006,0,.012,0,.018V76.709H36.246V28.932h3.178ZM35.746,77.709h5.848v2.937H34.076V77.709Zm-2.17,3.937H43.6v2.543l0,.01,0,.009v.376H32.067V81.646Zm10.527-1H42.594V77.209a.5.5,0,0,0-.5-.5h-1.67V57.5a8.574,8.574,0,0,0,1.314-.163c.385.928,3.024,7.864,2.443,22.268a.5.5,0,0,0,.48.519h.02a.5.5,0,0,0,.5-.48c.574-14.236-1.892-21.162-2.465-22.563a8.21,8.21,0,0,0,1.277-.56c.832,1.31,3.625,6.448,3.357,16.1a.5.5,0,0,0,.486.513h.014a.5.5,0,0,0,.5-.486c.275-9.92-2.562-15.185-3.5-16.651.145-.1.288-.206.431-.32,1.415,1.376,3.6,4.265,5.121,9.805l.006.02a48.027,48.027,0,0,1,1.461,8.66l0,.012a.214.214,0,0,0,.006.027,78.24,78.24,0,0,1,.165,9.5H44.6V81.146A.5.5,0,0,0,44.1,80.646Zm7.4-14.848H76.4a49.612,49.612,0,0,0-1.31,7.87H52.816A49.621,49.621,0,0,0,51.507,65.8Zm24.528,8.4a.247.247,0,0,0,.006-.029l0-.013C77,62.684,80.605,57.637,82.626,55.671c.144.114.287.219.431.32-.942,1.466-3.779,6.731-3.5,16.651a.5.5,0,0,0,.5.486h.013a.5.5,0,0,0,.487-.513c-.267-9.617,2.527-14.781,3.358-16.1a8.237,8.237,0,0,0,1.275.559c-.573,1.4-3.038,8.327-2.465,22.563a.5.5,0,0,0,.5.48h.02a.5.5,0,0,0,.48-.519c-.58-14.4,2.057-21.34,2.443-22.268a8.55,8.55,0,0,0,1.312.163V76.709H85.809a.5.5,0,0,0-.5.5v3.437H83.8a.5.5,0,0,0-.5.5V83.7H75.87A78.206,78.206,0,0,1,76.035,74.2ZM84.3,84.2V81.646H95.835v2.938H84.3Zm9.526-3.558H86.309V77.709h7.517Zm-5.349-3.937V57.023c0-.008,0-.014,0-.021a.1.1,0,0,0,0-.018V28.932h3.179V76.709ZM92.656,65.8h10.495a.5.5,0,1,0,0-1H92.656V49.889h27.495V73.668H92.656ZM87.477,53.29c-.612-.2-1.207-.411-1.771-.647-.666-.776-5.465-6.7-4.028-14.64a.5.5,0,0,0-.985-.178,18.945,18.945,0,0,0,3.05,13.87,19.41,19.41,0,0,1-3.7-2.622.456.456,0,0,0-.089-.081A20.76,20.76,0,0,1,75.3,42.68a.492.492,0,0,0-.114-.245,32.967,32.967,0,0,1-2.817-13.506H87.477Zm-15.6-25.361H70.258a4.743,4.743,0,0,0,1.149-3.341H94.161a1.671,1.671,0,0,1,1.177,2.856,1.652,1.652,0,0,1-1.177.485Zm-14.23,0h-23.9a1.673,1.673,0,0,1-1.67-1.671,1.628,1.628,0,0,1,.493-1.176,1.661,1.661,0,0,1,1.177-.494H56.5A4.813,4.813,0,0,0,57.645,27.929Zm-2.114,1a33.015,33.015,0,0,1-2.818,13.508.482.482,0,0,0-.114.242,19.944,19.944,0,0,1-8.44,9.016,18.945,18.945,0,0,0,3.05-13.87.5.5,0,0,0-.984.178c1.437,7.937-3.362,13.864-4.028,14.64-.565.236-1.16.449-1.773.647V28.929ZM35.246,42.269H7.8V26.754a8.374,8.374,0,0,1,6.55-1.378c3.162.8,5.845,3.831,7.976,8.994a.5.5,0,0,0,.314.286.493.493,0,0,0,.421-.058,4.1,4.1,0,0,1,3.924-.389c1.06.586,1.6,1.935,1.573,3.9a.5.5,0,0,0,.594.5,24.908,24.908,0,0,1,6.091-.2ZM7.754,116.748H22.772V120.2H7.754Zm0-1v-2.375H22.772v2.375Zm15.018-3.375H7.754v-1.508a7.509,7.509,0,1,1,15.018,0ZM120.2,12.132a8.947,8.947,0,0,0-1.125-1.856A8.442,8.442,0,0,0,115.827,7.8h4.37ZM104.923,7.8a9.847,9.847,0,0,0-5.641,6.335c-.719-.978-2.172-2.082-4.984-1.951-3.92.185-5.176,2.377-5.534,3.309-18.555-.594-23.533,1.531-24.848,2.858a1.41,1.41,0,0,0-.5,1.005.5.5,0,0,0,.5.478H120.2V42.269H92.656V28.929h1.5a2.671,2.671,0,0,0,0-5.341H71.267c-.04-.175-.087-.354-.145-.538a3.5,3.5,0,0,0-3.429-2.363,4.531,4.531,0,0,0-3.74,2.225,4.522,4.522,0,0,0-3.726-2.224,3.507,3.507,0,0,0-3.453,2.38c-.056.178-.1.35-.139.52H33.741a2.647,2.647,0,0,0-1.879.783,2.612,2.612,0,0,0-.791,1.887,2.674,2.674,0,0,0,2.67,2.671h1.505v8.485a26.694,26.694,0,0,0-5.692.121c-.1-2.561-1.171-3.7-2.083-4.2a4.942,4.942,0,0,0-4.438.132c-2.228-5.16-5.068-8.208-8.445-9.062A9.034,9.034,0,0,0,7.8,25.563V7.8Z"/></svg>