<?xml version="1.0" ?><svg viewBox="0 0 512 512" xmlns="http://www.w3.org/2000/svg"><g id="Dancing"><path d="M80.457,370.564,202.92,51.585a8,8,0,1,0-14.9365-5.7344L65.5205,364.83A8,8,0,1,0,80.457,370.564Z"/><path d="M324.0166,45.8506A8,8,0,1,0,309.08,51.585L431.543,370.564A8,8,0,0,0,446.48,364.83Z"/><path d="M331.7983,245.3154a24.7005,24.7005,0,0,0-8.884,1.6492,24.8236,24.8236,0,0,0-34.5792-21.3168,24.82,24.82,0,0,0-32.5973-16.4314V175.98a24.8347,24.8347,0,0,0-49.6694,0v78.396l-3.83-7.3643a24.8348,24.8348,0,0,0-44.0674,22.916l47.897,92.1043v73.2449a8,8,0,1,0,16,0V360.2189c0-.0059,0-.0116,0-.0175v-.1257c0-.0652-.0083-.1283-.01-.1931-.0043-.1858-.0107-.3714-.0281-.5574-.0094-.1-.0256-.1982-.0386-.2975-.0208-.1581-.0416-.3159-.0722-.4735-.0247-.1277-.057-.2522-.0876-.3777s-.059-.2489-.0958-.3727c-.0457-.1544-.1-.3044-.1548-.4548-.0341-.0939-.065-.188-.1029-.2811-.0706-.1736-.1508-.3418-.233-.5092-.0283-.0576-.05-.1167-.08-.1739l-.0569-.1094-.01-.0188-48.7327-93.7112a8.8349,8.8349,0,0,1,15.6768-8.1523L207.03,290.9039l.0064.0124,3.7251,7.1633a8,8,0,0,0,14.1953-7.3818l-2.8881-5.554V175.98a8.8347,8.8347,0,0,1,17.6694,0v54.1562c-.0718.7676-.1128,1.5441-.1128,2.33v38.6988a24.8283,24.8283,0,0,0,35.5269,22.4111A24.8107,24.8107,0,0,0,307.0134,307.35a24.821,24.821,0,0,0,30.7122,22.6133V435.2764a8,8,0,0,0,16,0V317.4929a24.6763,24.6763,0,0,0,2.9077-11.6443V270.15A24.863,24.863,0,0,0,331.7983,245.3154ZM264.46,279.999a8.8445,8.8445,0,0,1-8.8345-8.8344V256.929a8.023,8.023,0,0,0,.1128-1.2864v-24.517a8.829,8.829,0,0,1,17.5566,1.34v38.6988A8.8445,8.8445,0,0,1,264.46,279.999Zm33.6694,13a8.8445,8.8445,0,0,1-8.8345-8.8344V248.4658a8.8348,8.8348,0,0,1,17.67,0v35.6988A8.8446,8.8446,0,0,1,298.1289,292.999Zm24.835,12.85V270.15a8.8347,8.8347,0,0,1,17.6694,0v35.6987a8.8347,8.8347,0,0,1-17.6694,0Z"/><path d="M129.89,345.6888l-25.9561,15.5323a7.9986,7.9986,0,0,0-3.8925,6.8647v35.1829a19.2351,19.2351,0,1,0,15.9912,19.2229h.0088v-.1742c0-.0331.0048-.0648.0048-.0979s-.0046-.0648-.0048-.0979v-49.5l22.0634-13.2032a8,8,0,1,0-8.2148-13.7295Z"/><path d="M449.1191,68.4008H401.0078a8,8,0,0,0-8,8V84.402l-.002-.0012v26.3081a18.09,18.09,0,0,0-2.7717-.2364c-10.3672,0-18.7715,8.7491-18.7715,19.5413s8.4043,19.541,18.7715,19.541,18.7717-8.7488,18.7717-19.541V106.6459l.002-.0005V84.4008h32.1113v26.3081a18.0913,18.0913,0,0,0-2.7716-.2364c-10.3673,0-18.7716,8.7491-18.7716,19.5413s8.4043,19.541,18.7716,19.541,18.7716-8.7488,18.7716-19.541V76.4008A8,8,0,0,0,449.1191,68.4008Z"/></g></svg>