<?xml version="1.0" ?><svg xmlns="http://www.w3.org/2000/svg" xmlns:xlink="http://www.w3.org/1999/xlink" version="1.0" viewBox="0 0 48 48" enable-background="new 0 0 48 48" xml:space="preserve"><g id="Layer_1"/><g id="_x31_7_x5F_Meeting"><path d="M24,17c2.206,0,4-2.243,4-5s-1.794-5-4-5c-2.206,0-4,2.243-4,5S21.794,17,24,17z M24,9c1.084,0,2,1.374,2,3s-0.916,3-2,3   s-2-1.374-2-3S22.916,9,24,9z M8,20c2.206,0,4-2.243,4-5s-1.794-5-4-5s-4,2.243-4,5S5.794,20,8,20z M8,12c1.084,0,2,1.374,2,3   s-0.916,3-2,3s-2-1.374-2-3S6.916,12,8,12z M41,20c2.206,0,4-2.243,4-5s-1.794-5-4-5s-4,2.243-4,5S38.794,20,41,20z M41,12   c1.084,0,2,1.374,2,3s-0.916,3-2,3s-2-1.374-2-3S39.916,12,41,12z M16,26v-2c0-2.757,2.243-5,5-5h6c2.757,0,5,2.243,5,5v2   c0,0.553-0.447,1-1,1s-1-0.447-1-1v-2c0-1.654-1.346-3-3-3h-6c-1.654,0-3,1.346-3,3v2c0,0.553-0.448,1-1,1S16,26.553,16,26z M37,37   v1c0,1.654-1.346,3-3,3H14c-1.654,0-3-1.346-3-3v-1c0-0.553,0.448-1,1-1s1,0.447,1,1v1c0,0.552,0.449,1,1,1h20c0.552,0,1-0.448,1-1   v-1c0-0.553,0.447-1,1-1S37,36.447,37,37z M25,29c0.553,0,1,0.447,1,1s-0.447,1-1,1h-2c-0.552,0-1-0.447-1-1s0.448-1,1-1H25z    M14.265,35c-1.747,0-3.389-0.931-4.287-2.428l-1.835-3.058c-0.284-0.474-0.131-1.088,0.343-1.372s1.088-0.131,1.372,0.343   l1.835,3.058C12.231,32.441,13.217,33,14.265,33H18c0.551,0,1-0.448,1-1s-0.449-1-1-1h-2.419c-0.716,0-1.381-0.386-1.737-1.008   l-2.56-4.48C10.75,24.579,9.752,24,8.679,24H6c-0.551,0-1,0.449-1,1v11c0,0.313,0.149,0.612,0.399,0.799L8.6,39.2   c0.442,0.331,0.531,0.958,0.2,1.399C8.604,40.862,8.303,41,7.999,41C7.791,41,7.58,40.935,7.4,40.8l-3.2-2.4   C3.449,37.837,3,36.94,3,36V25c0-1.654,1.346-3,3-3h2.679c1.79,0,3.453,0.965,4.341,2.52L15.58,29H18c1.654,0,3,1.346,3,3   s-1.346,3-3,3H14.265z M45,25v11c0,0.939-0.448,1.837-1.2,2.399l-3.2,2.4c-0.18,0.135-0.39,0.2-0.599,0.2   c-0.305,0-0.604-0.138-0.801-0.4c-0.332-0.441-0.242-1.068,0.2-1.399l3.2-2.4C42.851,36.612,43,36.313,43,36V25   c0-0.551-0.448-1-1-1h-2.679c-1.074,0-2.072,0.579-2.604,1.512l-2.561,4.48C33.802,30.613,33.137,31,32.42,31H30   c-0.552,0-1,0.448-1,1s0.448,1,1,1h3.735c1.048,0,2.033-0.559,2.572-1.457l1.835-3.058c0.284-0.474,0.898-0.628,1.372-0.343   c0.474,0.284,0.627,0.898,0.343,1.372l-1.835,3.058C37.125,34.069,35.481,35,33.735,35H30c-1.654,0-3-1.346-3-3s1.346-3,3-3h2.42   l2.561-4.48c0.888-1.554,2.551-2.52,4.341-2.52H42C43.654,22,45,23.346,45,25z"/></g></svg>